# xmcd
#
# Track frame offsets:
#	150
#	15387
#	31663
#	46911
#	63810
#	83232
#	99622
#	113970
#	125901
#	137839
#	149367
#	163804
#
# Disc length: 2375 seconds
#
# Revision: 0
# Processed by: cddbd v1.5.2PL0 Copyright (c) Steve Scherf et al.
# Submitted via: audiograbber 1.83.01
#
DISCID=a009450c
DTITLE=Dorothée Lessard - Jimmy
DYEAR=1900
DGENRE=Country
TTITLE0=Fille De La Beauce (dorothée Lessard)
TTITLE1=La Barbière (Inconnu)
TTITLE2=Envoye Envoye Don Le Pèere (Inconnu)
TTITLE3=Jimmy (Dorothée Lessard)
TTITLE4=Maudite Chicane (Dorothée Lessard)
TTITLE5=Mes P'tits Enfants (Dorothée Lessard)
TTITLE6=Les Beaux Jours (Inconnu)
TTITLE7=P'tite Misère (Dorothée Lessard)
TTITLE8=Tourne Ma Roulette (Inconnu)
TTITLE9=C'était L'bon Temps (Dorothée Lessard)
TTITLE10=La Théière (Tex Lecor)
TTITLE11=La Vie Fait Bien Les Choses (Dorothée Lessard)
EXTD=
EXTT0=
EXTT1=
EXTT2=
EXTT3=
EXTT4=
EXTT5=
EXTT6=
EXTT7=
EXTT8=
EXTT9=
EXTT10=
EXTT11=
PLAYORDER=
